<svg xmlns="http://www.w3.org/2000/svg" xmlns:xlink="http://www.w3.org/1999/xlink" width="800" zoomAndPan="magnify" viewBox="0 0 600 599.999999" height="800" preserveAspectRatio="xMidYMid meet" version="1.0"><defs><clipPath id="1eb9183a90"><path d="M 155 188.125 L 445.25 188.125 L 445.25 411.625 L 155 411.625 Z M 155 188.125 " clip-rule="nonzero"/></clipPath><clipPath id="ac4ac7a31f"><path d="M 155 188.125 L 445 188.125 L 445 411.625 L 155 411.625 Z M 155 188.125 " clip-rule="nonzero"/></clipPath></defs><rect x="-60" width="720" fill="#ffffff" y="-60" height="719.999999" fill-opacity="1"/><rect x="-60" width="720" fill="#080c10" y="-60" height="719.999999" fill-opacity="1"/><g clip-path="url(#1eb9183a90)"><path fill="#080c10" d="M 139.425781 43.679688 L 396.300781 43.679688 C 398.402344 43.679688 400.503906 43.730469 402.601562 43.835938 C 404.703125 43.9375 406.796875 44.09375 408.890625 44.296875 C 410.980469 44.503906 413.066406 44.761719 415.144531 45.070312 C 417.226562 45.378906 419.296875 45.738281 421.359375 46.148438 C 423.417969 46.558594 425.46875 47.019531 427.507812 47.527344 C 429.546875 48.039062 431.574219 48.601562 433.585938 49.210938 C 435.59375 49.820312 437.589844 50.480469 439.570312 51.1875 C 441.550781 51.894531 443.507812 52.652344 445.453125 53.457031 C 447.394531 54.261719 449.316406 55.113281 451.214844 56.011719 C 453.113281 56.910156 454.992188 57.855469 456.84375 58.84375 C 458.699219 59.835938 460.527344 60.871094 462.332031 61.953125 C 464.132812 63.035156 465.910156 64.15625 467.65625 65.324219 C 469.40625 66.492188 471.121094 67.703125 472.8125 68.957031 C 474.5 70.207031 476.15625 71.5 477.78125 72.832031 C 479.40625 74.167969 480.996094 75.539062 482.554688 76.953125 C 484.113281 78.363281 485.632812 79.8125 487.121094 81.296875 C 488.605469 82.785156 490.054688 84.304688 491.464844 85.863281 C 492.878906 87.421875 494.25 89.011719 495.585938 90.636719 C 496.917969 92.261719 498.210938 93.917969 499.460938 95.605469 C 500.714844 97.296875 501.925781 99.011719 503.09375 100.761719 C 504.261719 102.507812 505.382812 104.285156 506.464844 106.085938 C 507.546875 107.890625 508.582031 109.71875 509.574219 111.570312 C 510.5625 113.425781 511.507812 115.304688 512.40625 117.203125 C 513.304688 119.101562 514.15625 121.023438 514.960938 122.964844 C 515.765625 124.90625 516.523438 126.867188 517.230469 128.847656 C 517.9375 130.828125 518.597656 132.820312 519.207031 134.832031 C 519.816406 136.84375 520.378906 138.871094 520.890625 140.910156 C 521.398438 142.949219 521.859375 145 522.269531 147.058594 C 522.679688 149.121094 523.039062 151.191406 523.347656 153.269531 C 523.65625 155.351562 523.914062 157.4375 524.121094 159.527344 C 524.324219 161.621094 524.480469 163.714844 524.582031 165.816406 C 524.6875 167.914062 524.738281 170.015625 524.738281 172.117188 L 524.738281 428.992188 C 524.738281 431.09375 524.6875 433.195312 524.582031 435.292969 C 524.480469 437.394531 524.324219 439.488281 524.121094 441.582031 C 523.914062 443.671875 523.65625 445.757812 523.347656 447.835938 C 523.039062 449.917969 522.679688 451.988281 522.269531 454.050781 C 521.859375 456.109375 521.398438 458.160156 520.890625 460.199219 C 520.378906 462.238281 519.816406 464.265625 519.207031 466.277344 C 518.597656 468.285156 517.9375 470.28125 517.230469 472.261719 C 516.523438 474.242188 515.765625 476.199219 514.960938 478.144531 C 514.15625 480.085938 513.304688 482.007812 512.40625 483.90625 C 511.507812 485.804688 510.5625 487.683594 509.574219 489.535156 C 508.582031 491.390625 507.546875 493.21875 506.464844 495.023438 C 505.382812 496.824219 504.261719 498.601562 503.09375 500.347656 C 501.925781 502.097656 500.714844 503.8125 499.460938 505.503906 C 498.210938 507.191406 496.917969 508.847656 495.585938 510.472656 C 494.25 512.097656 492.878906 513.6875 491.464844 515.246094 C 490.054688 516.804688 488.605469 518.324219 487.121094 519.8125 C 485.632812 521.296875 484.113281 522.746094 482.554688 524.15625 C 480.996094 525.570312 479.40625 526.941406 477.78125 528.277344 C 476.15625 529.609375 474.5 530.902344 472.8125 532.152344 C 471.121094 533.40625 469.40625 534.617188 467.65625 535.785156 C 465.910156 536.953125 464.132812 538.074219 462.332031 539.15625 C 460.527344 540.238281 458.699219 541.273438 456.84375 542.265625 C 454.992188 543.253906 453.113281 544.199219 451.214844 545.097656 C 449.316406 545.996094 447.394531 546.847656 445.453125 547.652344 C 443.507812 548.457031 441.550781 549.214844 439.570312 549.921875 C 437.589844 550.628906 435.59375 551.289062 433.585938 551.898438 C 431.574219 552.507812 429.546875 553.070312 427.507812 553.582031 C 425.46875 554.089844 423.417969 554.550781 421.359375 554.960938 C 419.296875 555.371094 417.226562 555.730469 415.144531 556.039062 C 413.066406 556.347656 410.980469 556.605469 408.890625 556.8125 C 406.796875 557.015625 404.703125 557.171875 402.601562 557.273438 C 400.503906 557.378906 398.402344 557.429688 396.300781 557.429688 L 139.425781 557.429688 C 137.324219 557.429688 135.222656 557.378906 133.125 557.273438 C 131.023438 557.171875 128.929688 557.015625 126.835938 556.8125 C 124.746094 556.605469 122.660156 556.347656 120.578125 556.039062 C 118.5 555.730469 116.429688 555.371094 114.367188 554.960938 C 112.308594 554.550781 110.257812 554.089844 108.21875 553.582031 C 106.179688 553.070312 104.152344 552.507812 102.140625 551.898438 C 100.128906 551.289062 98.136719 550.628906 96.15625 549.921875 C 94.175781 549.214844 92.214844 548.457031 90.273438 547.652344 C 88.332031 546.847656 86.410156 545.996094 84.511719 545.097656 C 82.613281 544.199219 80.734375 543.253906 78.878906 542.265625 C 77.027344 541.273438 75.199219 540.238281 73.394531 539.15625 C 71.59375 538.074219 69.816406 536.953125 68.070312 535.785156 C 66.320312 534.617188 64.605469 533.40625 62.914062 532.152344 C 61.226562 530.902344 59.570312 529.609375 57.945312 528.277344 C 56.320312 526.941406 54.730469 525.570312 53.171875 524.15625 C 51.613281 522.746094 50.09375 521.296875 48.605469 519.8125 C 47.121094 518.324219 45.671875 516.804688 44.261719 515.246094 C 42.847656 513.6875 41.476562 512.097656 40.140625 510.472656 C 38.808594 508.847656 37.515625 507.191406 36.265625 505.503906 C 35.011719 503.8125 33.800781 502.097656 32.632812 500.347656 C 31.464844 498.601562 30.34375 496.824219 29.261719 495.023438 C 28.179688 493.21875 27.144531 491.390625 26.152344 489.535156 C 25.164062 487.683594 24.21875 485.804688 23.320312 483.90625 C 22.421875 482.007812 21.570312 480.085938 20.765625 478.144531 C 19.960938 476.199219 19.203125 474.242188 18.496094 472.261719 C 17.789062 470.28125 17.128906 468.285156 16.519531 466.277344 C 15.910156 464.265625 15.347656 462.238281 14.835938 460.199219 C 14.328125 458.160156 13.867188 456.109375 13.457031 454.050781 C 13.046875 451.988281 12.6875 449.917969 12.378906 447.835938 C 12.070312 445.757812 11.8125 443.671875 11.605469 441.582031 C 11.402344 439.488281 11.246094 437.394531 11.144531 435.292969 C 11.039062 433.195312 10.988281 431.09375 10.988281 428.992188 L 10.988281 172.117188 C 10.988281 170.015625 11.039062 167.914062 11.144531 165.816406 C 11.246094 163.714844 11.402344 161.621094 11.605469 159.527344 C 11.8125 157.4375 12.070312 155.351562 12.378906 153.269531 C 12.6875 151.191406 13.046875 149.121094 13.457031 147.058594 C 13.867188 145 14.328125 142.949219 14.835938 140.910156 C 15.347656 138.871094 15.910156 136.84375 16.519531 134.832031 C 17.128906 132.820312 17.789062 130.828125 18.496094 128.847656 C 19.203125 126.867188 19.960938 124.90625 20.765625 122.964844 C 21.570312 121.023438 22.421875 119.101562 23.320312 117.203125 C 24.21875 115.304688 25.164062 113.425781 26.152344 111.570312 C 27.144531 109.71875 28.179688 107.890625 29.261719 106.085938 C 30.34375 104.285156 31.464844 102.507812 32.632812 100.761719 C 33.800781 99.011719 35.011719 97.296875 36.265625 95.605469 C 37.515625 93.917969 38.808594 92.261719 40.140625 90.636719 C 41.476562 89.011719 42.847656 87.421875 44.261719 85.863281 C 45.671875 84.304688 47.121094 82.785156 48.605469 81.296875 C 50.09375 79.8125 51.613281 78.363281 53.171875 76.953125 C 54.730469 75.539062 56.320312 74.167969 57.945312 72.832031 C 59.570312 71.5 61.226562 70.207031 62.914062 68.957031 C 64.605469 67.703125 66.320312 66.492188 68.070312 65.324219 C 69.816406 64.15625 71.59375 63.035156 73.394531 61.953125 C 75.199219 60.871094 77.027344 59.835938 78.878906 58.84375 C 80.734375 57.855469 82.613281 56.910156 84.511719 56.011719 C 86.410156 55.113281 88.332031 54.261719 90.273438 53.457031 C 92.214844 52.652344 94.175781 51.894531 96.15625 51.1875 C 98.136719 50.480469 100.128906 49.820312 102.140625 49.210938 C 104.152344 48.601562 106.179688 48.039062 108.21875 47.527344 C 110.257812 47.019531 112.308594 46.558594 114.367188 46.148438 C 116.429688 45.738281 118.5 45.378906 120.578125 45.070312 C 122.660156 44.761719 124.746094 44.503906 126.835938 44.296875 C 128.929688 44.09375 131.023438 43.9375 133.125 43.835938 C 135.222656 43.730469 137.324219 43.679688 139.425781 43.679688 Z M 139.425781 43.679688 " fill-opacity="1" fill-rule="nonzero"/></g><g clip-path="url(#ac4ac7a31f)"><path fill="#7fff6a" d="M 155.480469 412.9375 L 155.480469 188.171875 L 219.699219 188.171875 L 380.246094 348.71875 L 380.246094 188.171875 L 444.464844 188.171875 L 444.464844 412.9375 L 380.246094 412.9375 L 219.699219 252.390625 L 219.699219 412.9375 Z M 155.480469 412.9375 " fill-opacity="1" fill-rule="nonzero"/></g></svg>