<svg xmlns="http://www.w3.org/2000/svg" width="1200" height="630" viewBox="0 0 1200 630" role="img" aria-labelledby="title desc">
  <title id="title">Nexon Labs</title>
  <desc id="desc">Professional website design for business.</desc>
  <defs>
    <linearGradient id="bg" x1="0" x2="1" y1="0" y2="1">
      <stop offset="0%" stop-color="#080c10"/>
      <stop offset="100%" stop-color="#10211a"/>
    </linearGradient>
  </defs>
  <rect width="1200" height="630" fill="url(#bg)"/>
  <circle cx="180" cy="120" r="180" fill="#1a4d2e" opacity="0.22"/>
  <circle cx="1040" cy="180" r="120" fill="#2d4a0a" opacity="0.2"/>
  <circle cx="860" cy="520" r="180" fill="#0a3322" opacity="0.18"/>
  <g fill="none" stroke="#7fff6a" stroke-opacity="0.08">
    <path d="M0 80H1200"/>
    <path d="M0 160H1200"/>
    <path d="M0 240H1200"/>
    <path d="M0 320H1200"/>
    <path d="M0 400H1200"/>
    <path d="M0 480H1200"/>
    <path d="M0 560H1200"/>
    <path d="M120 0V630"/>
    <path d="M240 0V630"/>
    <path d="M360 0V630"/>
    <path d="M480 0V630"/>
    <path d="M600 0V630"/>
    <path d="M720 0V630"/>
    <path d="M840 0V630"/>
    <path d="M960 0V630"/>
    <path d="M1080 0V630"/>
  </g>
  <text x="110" y="220" fill="#e8efe8" font-family="Syne, Arial, sans-serif" font-size="58" font-weight="800">Nexon Labs</text>
  <text x="110" y="305" fill="#7fff6a" font-family="Syne, Arial, sans-serif" font-size="86" font-weight="800">Modern Websites.</text>
  <text x="110" y="392" fill="#e8efe8" font-family="Syne, Arial, sans-serif" font-size="86" font-weight="800">Real Results.</text>
  <text x="110" y="468" fill="#7a8f7a" font-family="DM Sans, Arial, sans-serif" font-size="34">Professional website design for Lithuanian businesses.</text>
</svg>
