<svg xmlns="http://www.w3.org/2000/svg" fill="#077525" viewBox="0 0 24 24" width="24" height="24">
  <path fill="#077525" fill-rule="evenodd" d="M7 2.75a.75.75 0 0 1 .75.75v.75h8.5V3.5a.75.75 0 0 1 1.5 0v.75H19A3.25 3.25 0 0 1 22.25 7.5v8.25A3.25 3.25 0 0 1 19 19H7A3.25 3.25 0 0 1 3.75 15.75V7.5A3.25 3.25 0 0 1 7 4.25h.75V3.5A.75.75 0 0 1 7 2.75ZM5.25 9.25v6.5c0 .966.784 1.75 1.75 1.75h12c.966 0 1.75-.784 1.75-1.75v-6.5H5.25Zm1.75-3.5c-.966 0-1.75.784-1.75 1.75v.25h15.5V7.5c0-.966-.784-1.75-1.75-1.75H7Z" clip-rule="evenodd"/>
  <path fill="#077525" d="M16.75 12.25a.75.75 0 0 1 .75.75v2.25c0 .414-.336.75-.75.75h-1.75a.75.75 0 0 1 0-1.5H16v-1.5a.75.75 0 0 1 .75-.75Z"/>
</svg>
